<?xml version="1.0" encoding="utf-8"?>
<!-- Generator: Adobe Illustrator 16.0.2, SVG Export Plug-In . SVG Version: 6.00 Build 0)  -->
<!DOCTYPE svg PUBLIC "-//W3C//DTD SVG 1.1//EN" "http://www.w3.org/Graphics/SVG/1.1/DTD/svg11.dtd">
<svg version="1.1" id="Layer_1" xmlns="http://www.w3.org/2000/svg" xmlns:xlink="http://www.w3.org/1999/xlink" x="0px" y="0px"
	 width="200px" height="200px" viewBox="0 0 200 200" enable-background="new 0 0 200 200" xml:space="preserve">
<path display="none" fill="none" stroke="#3772FF" stroke-width="5" d="M164,100c0,35.346-28.654,64-64,64
	c-35.346,0-64-28.654-64-64c0-12.829,3.855-25.362,11.067-35.973l-3.635-20.595l20.595,3.635
	c29.234-19.868,69.039-12.274,88.907,16.96C160.145,74.638,164,87.171,164,100"/>
<g>
	<path fill-rule="evenodd" clip-rule="evenodd" fill="#62C4BB" d="M162.139,49.567c0.342-0.262,0.694-0.513,1.025-0.792
		c3.009-2.541,6.014-5.088,9.02-7.632c0.904-0.765,1.81-1.525,2.717-2.29c0.058-0.005,0.119-0.01,0.175-0.018
		c1.403,1.34,2.81,2.68,4.209,4.024c2.453,2.349,4.903,4.701,7.354,7.051c0.665,0.641,1.335,1.272,2.002,1.909
		c0.14,0.134,0.265,0.277,0.404,0.424c-0.067,0.272-0.286,0.401-0.453,0.567c-2.014,1.965-4.034,3.924-6.052,5.886
		c-2.191,2.132-4.382,4.265-6.573,6.397c-3.687,3.585-7.372,7.173-11.061,10.759c-3.393,3.294-6.788,6.593-10.182,9.889
		c-3.324,3.229-6.648,6.456-9.973,9.688c-1.705,1.658-3.409,3.313-5.114,4.97c-1.67,1.619-3.342,3.245-5.014,4.866
		c-1.619,1.572-3.236,3.146-4.854,4.715c-1.431,1.388-2.861,2.766-4.283,4.16c-0.651,0.636-0.557,0.43-0.557,1.319
		c-0.002,10.651-0.002,21.302-0.002,31.955c0,0.315-0.011,0.628-0.015,0.943c-0.087,0.023-0.174,0.042-0.26,0.063
		c-2.229-2.164-4.459-4.324-6.684-6.491c-3.706-3.602-7.409-7.205-11.113-10.809c-0.052-0.052-0.1-0.106-0.157-0.149
		c-0.328-0.259-0.448-0.581-0.448-1.009c-0.001-7.569-0.015-15.136-0.039-22.709c-0.001-0.448,0.146-0.772,0.452-1.09
		c1.708-1.794,3.398-3.602,5.094-5.401c2.275-2.422,4.551-4.844,6.827-7.266c1.494-1.591,2.989-3.183,4.484-4.772
		c2.293-2.439,4.586-4.877,6.879-7.316c1.462-1.557,2.921-3.112,4.381-4.669c0.63-0.674,1.257-1.35,1.896-2.016
		c0.18-0.187,0.275-0.386,0.26-0.647c-0.012-0.192-0.002-0.388-0.002-0.583c0-7.641,0-15.284,0.002-22.925
		c0-0.293,0.007-0.583,0.011-0.876c0.313-0.009,0.628-0.028,0.942-0.028c6.762,0,13.524,0,20.286,0c1.235,0,2.471,0.003,3.706-0.003
		C161.667,49.661,161.919,49.719,162.139,49.567z"/>
	<path fill-rule="evenodd" clip-rule="evenodd" fill="#23BDC9" d="M65.531,49.808c0.009,0.29,0.024,0.58,0.024,0.869
		c0.002,7.624,0.002,15.249,0.003,22.872c0,0.288,0.031,0.578,0.047,0.866c0.031,0.045,0.064,0.087,0.098,0.132
		c0.74,0.802,1.473,1.609,2.22,2.403c3.504,3.732,7.015,7.458,10.52,11.188c2.29,2.434,4.584,4.863,6.867,7.306
		c2.416,2.585,4.849,5.154,7.27,7.733c0.976,1.044,1.947,2.091,2.932,3.126c0.215,0.225,0.343,0.458,0.305,0.776
		c-0.013,0.118,0,0.24,0,0.362c0,7.447,0,14.898,0,22.348c0,0.142-0.007,0.29,0,0.435c0.012,0.209-0.069,0.371-0.218,0.515
		c-0.663,0.639-1.324,1.275-1.98,1.918c-0.921,0.895-1.839,1.797-2.761,2.692c-4.401,4.276-8.8,8.552-13.205,12.825
		c-0.116,0.111-0.241,0.218-0.342,0.304c-0.182-0.046-0.155-0.161-0.16-0.25c-0.009-0.216-0.003-0.437-0.003-0.654
		c0-10.651,0.001-21.304-0.002-31.955c0-1.065,0.123-0.788-0.666-1.564c-1.159-1.142-2.327-2.274-3.491-3.406
		c-1.721-1.672-3.441-3.342-5.164-5.014c-1.859-1.806-3.719-3.613-5.579-5.42c-1.705-1.654-3.409-3.31-5.112-4.964
		c-1.65-1.604-3.302-3.205-4.954-4.811c-1.685-1.637-3.371-3.273-5.057-4.914c-1.685-1.639-3.372-3.277-5.057-4.915
		c-1.721-1.67-3.442-3.342-5.162-5.014c-3.444-3.347-6.885-6.693-10.328-10.04c-1.707-1.656-3.41-3.315-5.117-4.972
		c-1.581-1.534-3.163-3.073-4.745-4.608c-1.093-1.064-2.19-2.124-3.283-3.186c-0.153-0.15-0.296-0.311-0.479-0.499
		c0.131-0.141,0.237-0.267,0.354-0.38c1.275-1.225,2.551-2.45,3.826-3.675c1.275-1.222,2.553-2.443,3.829-3.668
		c1.188-1.141,2.377-2.279,3.567-3.418c0.804-0.769,1.61-1.537,2.416-2.305c0.061-0.002,0.123-0.002,0.184-0.003
		c2.034,1.719,4.067,3.438,6.102,5.154c1.368,1.155,2.736,2.309,4.106,3.462c0.813,0.688,1.627,1.372,2.441,2.054
		c0.104,0.051,0.203,0.131,0.312,0.143c0.217,0.023,0.437,0.009,0.654,0.009c7.905,0,15.811,0,23.716,0
		c0.316,0,0.629,0.018,0.943,0.026C65.448,49.729,65.489,49.77,65.531,49.808z"/>
	<path fill-rule="evenodd" clip-rule="evenodd" fill="#23BDC9" d="M44.289,38.752c-0.682-0.721-1.365-1.441-2.046-2.16
		c-0.848-0.894-1.704-1.776-2.542-2.677c-1.267-1.362-2.519-2.735-3.777-4.105c-0.067-0.072-0.14-0.136-0.198-0.213
		c-0.203-0.267-0.196-0.612,0.025-0.861c0.111-0.126,0.24-0.239,0.363-0.357c2.359-2.259,4.72-4.52,7.08-6.781
		c0.419-0.396,0.839-0.794,1.26-1.19c0.267-0.005,0.534-0.015,0.8-0.015c18.342,0,36.685,0,55.027,0.002
		c0.266,0,0.531,0.019,0.797,0.029c0.001,24.306,0.002,48.613,0.001,72.916c0,0.195-0.005,0.39-0.011,0.583
		c-0.099,0.007-0.201,0.013-0.301,0.018c-0.127-0.108-0.263-0.211-0.383-0.328c-2.292-2.229-4.58-4.464-6.869-6.693
		c-1.993-1.944-3.987-3.89-5.981-5.832c-3.21-3.128-6.421-6.254-9.629-9.384c-0.637-0.621-0.532-0.419-0.532-1.251
		c-0.002-10.23-0.001-20.463-0.002-30.692c0-0.292-0.022-0.583-0.031-0.871c-0.035-0.188-0.159-0.155-0.285-0.119
		c-0.267-0.007-0.535-0.021-0.801-0.021c-10.336,0-20.673,0-31.008,0c-0.267,0-0.533,0.014-0.8,0.021
		C44.393,38.766,44.341,38.759,44.289,38.752z"/>
	<path fill-rule="evenodd" clip-rule="evenodd" fill="#62C4BB" d="M101.068,93.923c0.006-0.193,0.011-0.388,0.011-0.583
		c0.001-24.303,0-48.61-0.001-72.916l0.004-0.05c0.314,0.005,0.629,0.017,0.943,0.017c18.154,0.002,36.313,0.002,54.467,0.002
		c0.362,0,0.726,0.002,1.089,0.004c0.3,0.284,0.604,0.563,0.9,0.847c1.786,1.715,3.568,3.431,5.354,5.145
		c0.771,0.738,1.546,1.472,2.319,2.209c0.157,0.152,0.3,0.301,0.307,0.551c0.008,0.274-0.134,0.448-0.305,0.631
		c-0.965,1.024-1.929,2.049-2.887,3.082c-1.635,1.758-3.268,3.521-4.904,5.279c-0.18,0.192-0.367,0.386-0.58,0.609
		c-0.278,0-0.568,0-0.856,0c-10.386,0-20.773,0-31.157,0c-0.315,0-0.632,0.018-0.946,0.026c-0.041,0.038-0.084,0.075-0.127,0.113
		c-0.011,0.313-0.028,0.63-0.028,0.944c-0.002,10.159,0,20.316-0.004,30.475c0,1.038,0.144,0.738-0.637,1.503
		c-3.221,3.154-6.449,6.303-9.677,9.454c-1.735,1.692-3.475,3.381-5.211,5.074c-2.03,1.979-4.062,3.961-6.094,5.938
		c-0.59,0.578-1.191,1.14-1.787,1.712c-0.041-0.024-0.087-0.035-0.135-0.031L101.068,93.923z"/>
	<path fill-rule="evenodd" clip-rule="evenodd" fill="#63C5BB" d="M166.421,91.177c0.012,0.24,0.034,0.484,0.034,0.724
		c0,8.857,0,17.713,0,26.572c0,0.12-0.007,0.24,0.004,0.362c0.021,0.236-0.064,0.423-0.239,0.581
		c-0.106,0.098-0.206,0.204-0.309,0.306c-2.938,2.928-5.877,5.859-8.819,8.787c-6.449,6.417-12.898,12.834-19.351,19.249
		c-0.171,0.173-0.356,0.329-0.534,0.492c-0.091-0.004-0.182-0.009-0.272-0.011c-0.007-0.241-0.021-0.483-0.021-0.728
		c0-8.516,0-17.03,0-25.546c0-0.122,0.01-0.244-0.004-0.366c-0.029-0.29,0.091-0.501,0.293-0.705c0.7-0.705,1.382-1.43,2.078-2.14
		c3.681-3.762,7.367-7.522,11.048-11.286c2.071-2.111,4.139-4.231,6.208-6.348c2.136-2.187,4.271-4.371,6.407-6.558
		c1.02-1.042,2.031-2.089,3.047-3.129c0.1-0.101,0.222-0.182,0.335-0.271l0.049,0.013H166.421z"/>
	<path fill-rule="evenodd" clip-rule="evenodd" fill="#23BDC9" d="M64.838,148.239c-0.178-0.16-0.364-0.314-0.536-0.483
		c-7.789-7.756-15.573-15.515-23.364-23.269c-0.772-0.768-1.58-1.503-2.354-2.272c-0.928-0.923-1.834-1.865-2.756-2.797
		c-0.162-0.166-0.261-0.34-0.242-0.577c0.009-0.121,0.001-0.244,0.001-0.363c0-8.833,0-17.664,0-26.498
		c0-0.217,0.01-0.433,0.015-0.653c0.093-0.014,0.184-0.031,0.276-0.045c1.251,1.284,2.498,2.57,3.755,3.851
		c0.982,1.004,1.981,1.995,2.965,2.998c2.987,3.05,5.972,6.104,8.957,9.157c2.051,2.098,4.098,4.195,6.147,6.291
		c2.135,2.185,4.271,4.365,6.403,6.55c0.201,0.208,0.385,0.434,0.578,0.649c0.017,0.047,0.049,0.079,0.1,0.091
		c0.062,0.063,0.126,0.129,0.188,0.192c0.01,0.047,0.039,0.078,0.083,0.096c0.024,0.215,0.07,0.429,0.07,0.642
		c0.003,8.645,0.003,17.291,0.002,25.938c0,0.167-0.018,0.336-0.027,0.506C65.014,148.241,64.927,148.241,64.838,148.239z"/>
	<path fill-rule="evenodd" clip-rule="evenodd" fill="#23BDC9" d="M99.041,181.775c-0.5-0.529-0.992-1.063-1.5-1.579
		c-1.308-1.334-2.63-2.652-3.932-3.989c-1.878-1.929-3.738-3.874-5.612-5.806c-1.517-1.568-3.044-3.132-4.566-4.699
		c-0.644-0.659-1.284-1.32-1.924-1.985c-0.115-0.119-0.214-0.26-0.35-0.419c0.175-0.187,0.335-0.366,0.5-0.539
		c4.244-4.296,8.488-8.592,12.729-12.892c0.44-0.445,0.866-0.909,1.301-1.366c0.046-0.038,0.092-0.077,0.137-0.115
		c1.651-1.67,3.3-3.342,4.95-5.012l0.067,0.002l0.063-0.012c0.058,0.074,0.114,0.146,0.17,0.225
		c0.002,12.623,0.003,25.249,0.004,37.87c0,0.169,0.029,0.351-0.021,0.506c-0.146,0.452-0.11,0.909-0.111,1.368
		c-0.001,0.095-0.004,0.19-0.004,0.284c-0.377-0.359-0.751-0.715-1.123-1.076c-0.221-0.215-0.433-0.437-0.649-0.656
		C99.128,181.85,99.083,181.81,99.041,181.775z"/>
	<path fill-rule="evenodd" clip-rule="evenodd" fill="#63C5BB" d="M100.947,183.333c0.001-0.459-0.035-0.916,0.111-1.368
		c0.051-0.155,0.021-0.337,0.021-0.506c-0.001-12.621-0.002-25.247-0.004-37.87c0.008-0.085,0.014-0.171,0.018-0.258
		c-0.002-0.046-0.012-0.084-0.027-0.122c1.506,1.513,3.014,3.021,4.516,4.543c4.674,4.726,9.344,9.456,14.014,14.188
		c0.426,0.431,0.834,0.876,1.271,1.338c-0.119,0.159-0.203,0.304-0.314,0.417c-0.533,0.567-1.07,1.126-1.612,1.685
		c-2.914,2.987-5.83,5.973-8.744,8.958c-1.847,1.896-3.69,3.792-5.535,5.686c-0.98,1.01-1.955,2.023-2.941,3.029
		c-0.142,0.145-0.249,0.369-0.514,0.338C101.118,183.37,101.033,183.353,100.947,183.333z"/>
	<path fill-rule="evenodd" clip-rule="evenodd" fill="#74C6D0" d="M101.078,20.424c-0.266-0.01-0.531-0.029-0.797-0.029
		c-18.342-0.002-36.685-0.002-55.027-0.002c-0.266,0-0.533,0.01-0.8,0.015c0.078-0.05,0.15-0.137,0.231-0.145
		c0.217-0.024,0.436-0.017,0.653-0.017c18.315,0,36.627,0,54.94,0.001c0.265,0,0.531,0.015,0.798,0.023
		c0.003,0.035,0.005,0.068,0.005,0.103L101.078,20.424z"/>
	<path fill-rule="evenodd" clip-rule="evenodd" fill="#93D3C7" d="M101.082,20.374c0-0.035-0.002-0.068-0.005-0.103
		c0.269-0.008,0.535-0.023,0.801-0.023c18.27-0.001,36.54-0.001,54.81-0.001c0.218,0,0.438-0.007,0.656,0.015
		c0.083,0.008,0.156,0.089,0.237,0.136c-0.363-0.002-0.727-0.004-1.089-0.004c-18.154,0-36.313,0-54.467-0.002
		C101.711,20.391,101.396,20.378,101.082,20.374z"/>
	<path fill-rule="evenodd" clip-rule="evenodd" fill="#A0D5DC" d="M65.406,49.691c-0.314-0.009-0.627-0.026-0.943-0.026
		c-7.905,0-15.812,0-23.716,0c-0.218,0-0.438,0.014-0.654-0.009c-0.109-0.012-0.208-0.092-0.312-0.143
		c8.269,0,16.538,0,24.806,0.002c0.243,0,0.484-0.007,0.726,0.016c0.081,0.007,0.155,0.091,0.232,0.141
		C65.497,49.67,65.45,49.675,65.406,49.691z"/>
	<path fill-rule="evenodd" clip-rule="evenodd" fill="#B4DFD5" d="M162.139,49.567c-0.22,0.152-0.472,0.094-0.709,0.094
		c-1.235,0.007-2.471,0.003-3.706,0.003c-6.762,0-13.524,0-20.286,0c-0.314,0-0.629,0.019-0.942,0.028
		c0.069-0.054,0.136-0.146,0.213-0.16c0.191-0.024,0.388-0.018,0.581-0.018c8.018,0,16.036,0,24.054,0.003
		C161.608,49.518,161.873,49.549,162.139,49.567z"/>
	<path fill-rule="evenodd" clip-rule="evenodd" fill="#69C9D3" d="M35.878,91.281c-0.092,0.014-0.183,0.031-0.276,0.045
		c0.01-0.08,0.021-0.16,0.029-0.24C35.713,91.148,35.797,91.213,35.878,91.281z"/>
	<path fill-rule="evenodd" clip-rule="evenodd" fill="#3DC0CB" d="M64.838,148.239c0.088,0.002,0.176,0.002,0.261,0.002
		c-0.009,0.064-0.008,0.178-0.031,0.183C64.935,148.452,64.877,148.353,64.838,148.239z"/>
	<path fill-rule="evenodd" clip-rule="evenodd" fill="#76CAC4" d="M136.935,148.239c0.091,0.002,0.182,0.007,0.272,0.011
		c-0.024,0.04-0.037,0.098-0.07,0.118c-0.052,0.035-0.118,0.046-0.178,0.07C136.952,148.368,136.943,148.306,136.935,148.239z"/>
	<path fill-rule="evenodd" clip-rule="evenodd" fill="#C9E9F0" d="M77.055,38.771c0.126-0.037,0.25-0.07,0.285,0.119
		C77.244,38.85,77.149,38.811,77.055,38.771z"/>
	<path fill-rule="evenodd" clip-rule="evenodd" fill="#47C1C3" d="M100.768,93.94c0.1-0.005,0.202-0.011,0.301-0.018l0.058,0.035
		c0.005,0.047,0.009,0.094,0.015,0.145l-0.031,0.02c-0.066,0-0.133,0-0.199,0C100.863,94.063,100.816,94,100.768,93.94z"/>
	<path fill-rule="evenodd" clip-rule="evenodd" fill="#92D4D2" d="M124.653,148.421c0.086-0.021,0.173-0.04,0.26-0.063
		c-0.018,0.057-0.035,0.112-0.053,0.17C124.791,148.49,124.722,148.455,124.653,148.421z"/>
	<path fill-rule="evenodd" clip-rule="evenodd" fill="#47C1C3" d="M100.947,183.333c0.086,0.02,0.171,0.037,0.258,0.058
		c-0.035,0.1-0.072,0.201-0.107,0.297c-0.059,0-0.113-0.002-0.17-0.004l0.016-0.066
		C100.943,183.523,100.946,183.428,100.947,183.333z"/>
	<path fill-rule="evenodd" clip-rule="evenodd" fill="#A0D5DC" d="M27.131,38.843c-0.062,0.001-0.123,0.001-0.184,0.003
		C27.007,38.734,27.069,38.734,27.131,38.843z"/>
	<path fill-rule="evenodd" clip-rule="evenodd" fill="#C9E9F0" d="M44.289,38.752c0.052,0.007,0.104,0.014,0.157,0.019
		C44.383,38.862,44.33,38.844,44.289,38.752z"/>
	<path fill-rule="evenodd" clip-rule="evenodd" fill="#D0ECF1" d="M124.699,38.89c0.043-0.039,0.086-0.075,0.127-0.113
		C124.785,38.814,124.742,38.851,124.699,38.89z"/>
	<path fill-rule="evenodd" clip-rule="evenodd" fill="#B4DFD5" d="M175.075,38.835c-0.056,0.007-0.117,0.012-0.175,0.018
		C174.949,38.755,175.009,38.745,175.075,38.835z"/>
	<path fill-rule="evenodd" clip-rule="evenodd" fill="#3DC0CB" d="M65.406,49.691c0.044-0.016,0.091-0.021,0.138-0.02
		c0.021,0.047,0.016,0.093-0.012,0.136C65.489,49.77,65.448,49.729,65.406,49.691z"/>
	<path fill-rule="evenodd" clip-rule="evenodd" fill="#D4EDF0" d="M65.704,74.547c-0.033-0.045-0.066-0.087-0.098-0.132
		C65.638,74.46,65.671,74.502,65.704,74.547z"/>
	<path fill-rule="evenodd" clip-rule="evenodd" fill="#7BCCC7" d="M166.421,91.177h-0.046l-0.049-0.013
		c0.021-0.029,0.044-0.061,0.066-0.091C166.401,91.106,166.412,91.142,166.421,91.177z"/>
	<path fill-rule="evenodd" clip-rule="evenodd" fill="#92D4D2" d="M101.141,94.103c-0.006-0.051-0.01-0.098-0.015-0.145
		c0.049-0.004,0.095,0.007,0.136,0.031C101.223,94.027,101.182,94.063,101.141,94.103z"/>
	<path fill-rule="evenodd" clip-rule="evenodd" fill="#92D4D2" d="M100.91,94.122c0.066,0,0.133,0,0.199,0
		C101.041,94.235,100.977,94.227,100.91,94.122z"/>
	<path fill-rule="evenodd" clip-rule="evenodd" fill="#3DC0CB" d="M64.783,120.868c-0.051-0.012-0.083-0.044-0.1-0.091
		C64.716,120.808,64.749,120.837,64.783,120.868z"/>
	<path fill-rule="evenodd" clip-rule="evenodd" fill="#3DC0CB" d="M65.055,121.156c-0.045-0.018-0.073-0.049-0.083-0.096
		C65,121.092,65.027,121.125,65.055,121.156z"/>
	<path fill-rule="evenodd" clip-rule="evenodd" fill="#B4DFD5" d="M100.892,143.241c0.058-0.012,0.116-0.022,0.175-0.031
		c0.016,0.037,0.025,0.075,0.027,0.121c-0.053-0.015-0.104-0.028-0.156-0.044L100.892,143.241z"/>
	<path fill-rule="evenodd" clip-rule="evenodd" fill="#B4DFD5" d="M100.906,143.364l-0.063,0.012l-0.067-0.002
		c0.039-0.043,0.076-0.089,0.116-0.133l0.046,0.046C100.921,143.312,100.91,143.336,100.906,143.364z"/>
	<path fill-rule="evenodd" clip-rule="evenodd" fill="#B4DFD5" d="M95.825,148.386c-0.045,0.038-0.091,0.077-0.137,0.115
		C95.734,148.463,95.78,148.424,95.825,148.386z"/>
	<path fill-rule="evenodd" clip-rule="evenodd" fill="#B4DFD5" d="M99.041,181.775c0.042,0.034,0.087,0.074,0.13,0.109
		C99.126,181.85,99.083,181.81,99.041,181.775z"/>
	<path fill-rule="evenodd" clip-rule="evenodd" fill="#B4DFD5" d="M100.928,183.684c0.057,0.002,0.111,0.004,0.17,0.004
		C101.037,183.778,100.982,183.776,100.928,183.684z"/>
	<path fill-rule="evenodd" clip-rule="evenodd" fill="#47C1C3" d="M100.906,143.364c0.004-0.028,0.015-0.053,0.031-0.077
		c0.053,0.016,0.104,0.029,0.156,0.044c-0.004,0.087-0.01,0.173-0.018,0.258C101.021,143.511,100.964,143.438,100.906,143.364z"/>
</g>
</svg>
